<?xml version="1.0" encoding="utf-8"?>
<!-- Generator: Adobe Illustrator 23.0.3, SVG Export Plug-In . SVG Version: 6.00 Build 0)  -->
<svg version="1.1" id="Layer_1" xmlns="http://www.w3.org/2000/svg" xmlns:xlink="http://www.w3.org/1999/xlink" x="0px" y="0px"
	 viewBox="0 0 1366 221" style="enable-background:new 0 0 1366 221;" xml:space="preserve">
<style type="text/css">
	.st0{fill:none;}
	.st1{fill:#1185FE;}
</style>
<path class="st0" d="M712,222c-51.3,0-102.2,0-153,0c0-73.7,0-147.3,0-221c83.3,0,166.7,0,250,0c0,73.7,0,147.3,0,221
	C776.8,222,744.7,222,712,222 M698.1,197.4c4.2,4.9,7.7,10.4,12.6,14.5c7.7,6.4,17.1,8.3,26.7,5.1c16.2-5.4,28.1-16.4,36.9-30.7
	c8.7-14.2,5.7-30-8.5-38.8c-7.2-4.5-15-7.9-20.4-10.7c5.7-1,13.9-1.6,21.7-3.8c16.9-4.9,28.5-16.2,31.9-34.6
	c1.7-9.1,2.4-18.5,3.1-27.8c1.2-15.8,2.7-31.6,2.8-47.4c0-9.4-5.4-17.1-13.8-18c-10.1-1.2-19.6,1.6-28.1,6.7
	c-12.8,7.7-24.5,17-33.9,28.8c-9.7,12.1-19.6,24.1-28.8,36.6c-6,8.1-10.9,17.1-16.4,25.8c-2.9-5.1-5.5-10.4-8.6-15.2
	c-14.6-22.6-30.8-43.9-50.9-62.1c-8.7-7.9-18.4-14.3-29.3-18.3c-5.6-2.1-12.3-2.5-18.4-2.1c-8.3,0.6-13.5,8.9-13.5,18.7
	c0.1,11.9,1,23.7,1.9,35.6c1.1,12.9,1.9,25.9,4.1,38.6c3.2,18.7,15,29.8,31.7,34.7c7.8,2.3,16,2.9,22.4,3.9
	c-5.2,2.3-12.5,4.7-18.7,8.6c-14.3,8.9-20.4,23-11.6,39.5c7.5,14.1,19.1,24.2,33.4,30.7c11.2,5.1,22.4,3.7,32-4.5
	c9.4-8.1,15.2-18.7,19.6-30.1c1.8-4.7,3.8-9.3,5.6-13.7C688.5,177.2,693.2,186.9,698.1,197.4z"/>
<path class="st1" d="M698,197c-4.8-10.1-9.5-19.8-14.4-29.8c-1.8,4.3-3.7,9-5.6,13.7c-4.4,11.4-10.2,22-19.6,30.1
	c-9.6,8.3-20.9,9.6-32,4.5c-14.3-6.5-25.8-16.6-33.4-30.7c-8.8-16.5-2.7-30.6,11.6-39.5c6.2-3.9,13.5-6.2,18.7-8.6
	c-6.4-1.1-14.6-1.7-22.4-3.9c-16.7-4.9-28.6-16-31.7-34.7c-2.1-12.7-3-25.7-4.1-38.6c-1-11.8-1.9-23.7-1.9-35.6
	c-0.1-9.8,5.2-18.2,13.5-18.7c6.1-0.4,12.7,0,18.4,2.1c10.9,4,20.5,10.5,29.3,18.3c20.1,18.1,36.3,39.5,50.9,62.1
	c3.2,4.9,5.7,10.1,8.6,15.2c5.4-8.7,10.4-17.6,16.4-25.8c9.2-12.5,19.1-24.5,28.8-36.6c9.4-11.8,21.1-21.1,33.9-28.8
	c8.6-5.2,18-7.9,28.1-6.7c8.4,1,13.8,8.6,13.8,18c0,15.8-1.6,31.6-2.8,47.4c-0.7,9.3-1.4,18.7-3.1,27.8c-3.4,18.4-15,29.7-31.9,34.6
	c-7.8,2.2-16,2.9-21.7,3.8c5.4,2.8,13.2,6.2,20.4,10.7c14.2,8.8,17.2,24.6,8.5,38.8c-8.7,14.4-20.7,25.3-36.9,30.7
	c-9.6,3.2-19,1.4-26.7-5.1C705.8,207.8,702.2,202.2,698,197z"/>
</svg>
